<svg xmlns="http://www.w3.org/2000/svg" viewBox="0 0 128 128" width="128" height="128">
  <rect width="128" height="128" fill="transparent"/>

  <!-- Soft warm glow, intentionally transparent outside the flame -->
  <ellipse cx="64" cy="88" rx="36" ry="28" fill="#ff8a1c" opacity="0.22"/>
  <ellipse cx="64" cy="92" rx="25" ry="18" fill="#ffcf4a" opacity="0.18"/>

  <!-- Outer flame silhouette -->
  <path d="M64 113
           C42 101 34 84 42 66
           C47 54 55 48 55 35
           C68 46 73 56 72 69
           C82 59 85 48 82 35
           C101 55 105 83 89 101
           C82 109 73 113 64 113 Z"
        fill="#e85b16"/>

  <!-- Mid flame -->
  <path d="M64 105
           C50 96 47 83 52 71
           C55 63 61 58 61 48
           C70 58 73 66 70 78
           C77 72 80 65 79 56
           C90 72 88 91 76 101
           C72 104 68 105 64 105 Z"
        fill="#ff9b24"/>

  <!-- Inner hot core -->
  <path d="M64 98
           C56 91 56 81 61 72
           C64 67 66 62 65 55
           C73 66 76 79 71 90
           C69 94 67 97 64 98 Z"
        fill="#ffd75a"/>

  <!-- Small ember base -->
  <ellipse cx="64" cy="111" rx="24" ry="6" fill="#7a2410" opacity="0.65"/>
</svg>
