<svg xmlns="http://www.w3.org/2000/svg" viewBox="0 0 120 160" width="120" height="160">
  <rect width="120" height="160" fill="transparent"/>
  <g stroke="#1a1a1a" stroke-width="2.5" fill="none">
    <!-- Trunk -->
    <path d="M55,30 L50,100 L52,130 L48,155 L72,155 L68,130 L70,100 L65,30 Z" fill="#2a2218" stroke="#1a1a1a"/>
    <!-- Main branches -->
    <path d="M55,45 L25,20" stroke-width="3"/>
    <path d="M65,40 L95,15" stroke-width="3"/>
    <path d="M60,55 L20,40" stroke-width="2.5"/>
    <path d="M60,50 L100,35" stroke-width="2.5"/>
    <path d="M52,60 L15,60" stroke-width="2"/>
    <path d="M68,60 L105,55" stroke-width="2"/>
    <!-- Small bare twigs -->
    <path d="M25,20 L18,10" stroke-width="1.5"/>
    <path d="M25,20 L15,18" stroke-width="1.5"/>
    <path d="M95,15 L105,8" stroke-width="1.5"/>
    <path d="M95,15 L108,20" stroke-width="1.5"/>
    <path d="M20,40 L12,32" stroke-width="1.5"/>
    <path d="M20,40 L12,45" stroke-width="1.5"/>
    <path d="M100,35 L110,28" stroke-width="1.5"/>
    <path d="M15,60 L8,55" stroke-width="1.5"/>
    <path d="M105,55 L112,50" stroke-width="1.5"/>
    <!-- Roots -->
    <path d="M48,155 L42,158" stroke-width="2"/>
    <path d="M72,155 L80,158" stroke-width="2"/>
  </g>
</svg>
